# xmcd
#
# Track frame offsets:
#	150
#	8600
#	21657
#	29465
#	47357
#	61290
#	71767
#	85317
#	94172
#	109507
#	121527
#	137217
#
# Disc length: 1959 seconds
#
# Revision: 1
# Processed by: cddbd v1.5.2PL0 Copyright (c) Steve Scherf et al.
# Submitted via: dBpowerAMP V4.0
#
DISCID=9707a50c
DTITLE=Ralph Stanley - I'll Answer The Call
DYEAR=1988
DGENRE=Gospel
TTITLE0=I'll Answer The Call
TTITLE1=White Oak On The Hill
TTITLE2=Let The Church Roll On
TTITLE3=In His Arms I'm Not Afraid
TTITLE4=Calling My Children Home
TTITLE5=Everything's Alright
TTITLE6=Praying
TTITLE7=I'll Put On A Crown
TTITLE8=I'd Like To Talk It Over With Him
TTITLE9=We Shall Sleep
TTITLE10=Daddy's Rose
TTITLE11=Welcome In
EXTD=Rebel Records
EXTT0=
EXTT1=
EXTT2=
EXTT3=
EXTT4=
EXTT5=
EXTT6=
EXTT7=
EXTT8=
EXTT9=
EXTT10=
EXTT11=
PLAYORDER=
